<?xml version="1.0" standalone="no"?>
<!DOCTYPE svg PUBLIC "-//W3C//DTD SVG 20010904//EN"
 "http://www.w3.org/TR/2001/REC-SVG-20010904/DTD/svg10.dtd">
<svg version="1.0" xmlns="http://www.w3.org/2000/svg"
 width="640.000000pt" height="315.000000pt" viewBox="0 0 640.000000 315.000000"
 preserveAspectRatio="xMidYMid meet">

<g transform="translate(0.000000,315.000000) scale(0.100000,-0.100000)"
fill="#000000" stroke="none">
<path d="M270 2495 c0 -24 3 -25 54 -25 40 0 55 -4 60 -16 8 -20 8 -738 0
-758 -5 -12 -20 -16 -60 -16 -51 0 -54 -1 -54 -25 l0 -25 310 0 310 0 0 90 c0
89 0 90 -25 90 -23 0 -24 -4 -27 -62 l-3 -63 -189 -3 c-145 -2 -191 1 -198 10
-9 15 -11 329 -2 352 5 14 29 16 161 16 l154 0 -3 23 c-3 22 -6 22 -153 25
-104 2 -152 6 -157 15 -10 16 -10 318 0 335 7 9 53 12 198 10 l189 -3 3 -62
c3 -59 4 -63 27 -63 25 0 25 1 25 90 l0 90 -310 0 -310 0 0 -25z"/>
<path d="M1187 2513 c-4 -3 -7 -15 -7 -25 0 -15 8 -18 59 -18 71 0 77 -9 66
-101 -4 -33 -9 -108 -11 -167 -2 -59 -6 -165 -10 -237 -4 -71 -6 -155 -5 -185
3 -96 0 -100 -69 -100 -57 0 -60 -1 -60 -25 l0 -25 145 0 145 0 0 25 c0 24 -3
25 -56 25 l-55 0 6 213 c4 116 7 223 7 237 -1 90 12 270 19 270 7 0 139 -262
139 -276 0 -6 139 -298 159 -334 10 -19 23 -35 27 -35 10 0 55 88 148 290 150
326 167 358 177 348 9 -9 12 -72 25 -500 l6 -213 -56 0 c-53 0 -56 -1 -56 -25
l0 -25 150 0 150 0 0 25 c0 24 -2 25 -64 25 l-64 0 -7 39 c-3 21 -6 65 -5 97
1 33 -1 109 -4 169 -3 61 -8 178 -11 260 -3 83 -8 158 -11 168 -3 9 -2 26 1
37 5 17 15 20 66 20 56 0 59 1 59 25 0 25 0 25 -93 25 l-93 0 -63 -132 c-35
-73 -74 -155 -86 -183 -13 -27 -36 -79 -52 -115 -77 -169 -108 -230 -115 -230
-7 0 -87 160 -149 298 -38 84 -58 128 -94 212 -21 47 -46 100 -57 118 l-20 32
-87 0 c-48 0 -91 -3 -94 -7z"/>
<path d="M2460 2496 c0 -25 2 -26 60 -26 l60 0 0 -395 0 -395 -60 0 c-58 0
-60 -1 -60 -26 l0 -26 234 3 233 4 69 35 c89 46 127 102 127 188 -1 102 -45
167 -135 200 -56 20 -60 34 -16 53 57 24 97 67 114 125 32 113 -6 198 -114
251 -57 28 -59 28 -284 31 l-228 4 0 -26z m461 -41 c79 -28 119 -86 119 -173
0 -43 -21 -82 -64 -120 -48 -42 -91 -52 -223 -52 l-113 0 0 173 c0 96 3 177 7
180 13 14 230 7 274 -8z m42 -424 c65 -32 99 -83 102 -156 3 -71 -33 -133 -97
-167 -39 -21 -56 -23 -183 -23 l-140 0 -3 175 c-1 96 0 181 3 188 4 11 32 13
138 10 114 -3 138 -6 180 -27z"/>
<path d="M4480 2460 c0 -8 -3 -25 -6 -37 -5 -19 -2 -23 16 -23 19 0 21 4 15
28 -8 32 -25 53 -25 32z"/>
<path d="M4404 2361 c-76 -47 -103 -142 -62 -221 79 -153 313 -98 312 75 0
100 -65 165 -164 165 -36 0 -66 -6 -86 -19z m150 -50 c10 -16 -18 -29 -64 -29
-47 1 -93 21 -68 31 22 9 126 8 132 -2z m-10 -123 c9 -12 16 -34 16 -47 0 -32
-37 -71 -67 -71 -31 0 -73 42 -73 73 0 59 91 92 124 45z"/>
<path d="M3714 2305 c-4 -9 38 -70 108 -158 425 -540 617 -785 628 -804 13
-20 8 -29 -63 -116 -42 -52 -77 -102 -77 -111 0 -35 32 -12 105 79 43 52 78
95 79 95 1 0 35 -43 76 -95 41 -52 80 -94 87 -95 22 0 25 22 7 46 -11 13 -47
60 -81 103 l-62 79 262 334 c145 183 315 400 380 481 64 82 117 152 117 157 0
5 -5 12 -11 16 -18 11 8 43 -571 -693 -110 -139 -202 -253 -206 -253 -4 1
-114 137 -244 303 -439 559 -509 647 -519 647 -5 0 -12 -7 -15 -15z"/>
<path d="M4279 2189 c-23 -25 -34 -29 -85 -30 -109 -2 -115 -17 -8 -18 111 -1
128 7 122 52 l-3 25 -26 -29z"/>
<path d="M4670 2191 c0 -45 15 -51 125 -50 106 1 100 16 -8 18 -51 1 -62 5
-88 30 l-29 29 0 -27z"/>
<path d="M4108 2119 c-27 -16 -23 -65 7 -85 23 -15 27 -15 50 0 30 20 33 56 7
79 -21 19 -39 21 -64 6z"/>
<path d="M4806 2114 c-24 -24 -20 -61 9 -80 23 -15 27 -15 50 0 42 28 24 96
-25 96 -10 0 -26 -7 -34 -16z"/>
<path d="M5146 1835 c-12 -32 -7 -85 9 -85 12 0 13 9 8 48 -7 55 -8 58 -17 37z"/>
<path d="M3544 1797 c-3 -8 -4 -47 -2 -88 3 -68 5 -74 26 -77 14 -2 22 -10 22
-22 0 -12 -8 -20 -22 -22 -19 -2 -23 -9 -23 -38 0 -29 4 -36 23 -38 21 -3 22
-8 22 -78 l0 -74 180 0 180 0 0 74 c0 70 1 75 23 78 18 2 22 9 22 38 0 29 -4
36 -23 38 -30 4 -25 36 6 40 21 3 22 8 22 93 l0 89 -225 0 c-180 0 -227 -3
-231 -13z m376 -182 l0 -55 -150 0 -150 0 0 55 0 55 150 0 150 0 0 -55z m-90
-150 l0 -45 -55 0 -55 0 0 45 0 45 55 0 55 0 0 -45z m-146 13 c8 -14 7 -21 -6
-34 -30 -30 -75 9 -48 42 16 18 39 15 54 -8z m230 0 c8 -14 7 -21 -6 -34 -30
-30 -75 9 -48 42 16 18 39 15 54 -8z"/>
<path d="M5100 1697 c-63 -23 -80 -34 -80 -53 0 -10 15 -8 66 10 l66 24 69
-23 c52 -18 69 -21 69 -11 0 19 -16 29 -80 53 l-55 21 -55 -21z"/>
<path d="M5050 1597 c-110 -42 -120 -49 -120 -83 0 -20 4 -19 112 18 l112 39
113 -40 c100 -36 113 -39 113 -23 0 33 -25 51 -125 90 l-101 39 -104 -40z"/>
<path d="M5038 1485 c-53 -18 -101 -36 -107 -39 -6 -4 -6 -19 -1 -39 5 -17 14
-52 20 -75 11 -43 12 -43 31 -26 18 16 19 16 19 -6 l0 -23 24 22 23 22 6 -23
6 -23 23 25 22 24 6 -23 5 -23 20 22 19 21 9 -23 9 -23 15 23 c20 28 33 28 33
0 l0 -21 24 22 23 22 6 -23 7 -23 15 23 c17 24 38 30 33 10 -2 -7 2 -15 7 -18
6 -2 18 22 27 55 29 104 32 99 -90 139 -59 20 -114 36 -122 35 -8 0 -59 -16
-112 -34z"/>
<path d="M3590 1310 c0 -27 3 -30 30 -30 27 0 30 3 30 30 0 27 -3 30 -30 30
-27 0 -30 -3 -30 -30z"/>
<path d="M3890 1310 c0 -27 3 -30 30 -30 27 0 30 3 30 30 0 27 -3 30 -30 30
-27 0 -30 -3 -30 -30z"/>
<path d="M350 1299 c-39 -15 -59 -39 -66 -76 -7 -40 10 -88 40 -108 26 -19 96
-19 122 -1 27 21 12 29 -22 12 -60 -30 -119 7 -119 74 0 67 58 105 116 76 16
-8 31 -10 34 -6 13 21 -69 43 -105 29z"/>
<path d="M640 1297 c-107 -37 -78 -197 36 -197 58 0 93 30 101 87 7 52 -14 89
-62 109 -19 8 -36 14 -37 13 -2 0 -19 -5 -38 -12z m98 -43 c26 -29 28 -70 6
-102 -56 -80 -181 -11 -144 78 25 61 94 73 138 24z"/>
<path d="M1233 1300 c-12 -5 -27 -18 -33 -29 -15 -29 2 -56 49 -81 47 -24 57
-45 29 -64 -20 -14 -41 -12 -64 5 -16 13 -26 -2 -13 -18 6 -7 29 -13 50 -13
30 0 42 6 54 24 22 33 7 59 -45 86 -44 23 -53 52 -20 70 14 8 26 8 41 0 22
-12 39 -6 23 9 -16 15 -48 20 -71 11z"/>
<path d="M2263 1303 c-30 -6 -70 -48 -76 -80 -6 -33 7 -70 35 -100 33 -35 101
-32 139 6 72 72 4 192 -98 174z m85 -46 c60 -55 -8 -165 -85 -136 -35 13 -52
37 -53 76 0 46 9 64 44 79 36 15 62 10 94 -19z"/>
<path d="M3050 1297 c-17 -9 -26 -22 -28 -45 -3 -29 1 -34 42 -54 47 -22 59
-38 50 -62 -8 -21 -39 -26 -68 -11 -28 15 -41 9 -25 -12 16 -18 84 -17 103 3
33 32 16 64 -51 98 -38 19 -44 50 -13 66 14 8 26 8 41 0 22 -12 39 -6 23 9
-18 17 -49 20 -74 8z"/>
<path d="M910 1200 c0 -117 18 -137 22 -24 l3 76 55 -76 c30 -41 61 -76 68
-76 9 0 12 27 12 100 0 60 -4 100 -10 100 -6 0 -10 -32 -10 -75 0 -41 -3 -75
-7 -75 -5 0 -33 34 -63 75 -30 41 -58 75 -62 75 -4 0 -8 -45 -8 -100z"/>
<path d="M1440 1222 c0 -99 14 -122 74 -122 64 0 76 19 76 118 0 48 -4 82 -10
82 -6 0 -10 -33 -10 -80 0 -73 -2 -81 -24 -96 -22 -13 -29 -14 -53 -2 -27 13
-28 16 -31 96 -4 104 -22 108 -22 4z"/>
<path d="M1730 1200 l0 -100 55 0 c30 0 55 5 55 10 0 6 -20 10 -45 10 l-45 0
0 90 c0 53 -4 90 -10 90 -6 0 -10 -40 -10 -100z"/>
<path d="M1930 1290 c0 -5 16 -10 35 -10 l35 0 0 -90 c0 -53 4 -90 10 -90 6 0
10 37 10 90 l0 90 35 0 c19 0 35 5 35 10 0 6 -33 10 -80 10 -47 0 -80 -4 -80
-10z"/>
<path d="M2520 1200 c0 -60 4 -100 10 -100 6 0 10 18 10 41 0 38 1 40 28 37
19 -2 32 -13 47 -40 11 -21 26 -38 33 -38 10 0 8 9 -7 34 -22 35 -27 66 -11
66 19 0 23 49 6 75 -14 21 -24 25 -66 25 l-50 0 0 -100z m98 68 c28 -28 -1
-68 -49 -68 -27 0 -29 2 -29 40 0 39 1 40 33 40 18 0 38 -5 45 -12z"/>
<path d="M2780 1200 l0 -100 60 0 c33 0 60 4 60 10 0 6 -22 10 -50 10 l-50 0
0 35 c0 34 1 35 40 35 22 0 40 5 40 10 0 6 -18 10 -40 10 -39 0 -40 1 -40 35
0 35 0 35 44 35 25 0 48 5 51 10 4 6 -17 10 -54 10 l-61 0 0 -100z"/>
</g>
</svg>
